<?xml version="1.0" standalone="no"?>
<!DOCTYPE svg PUBLIC "-//W3C//DTD SVG 20010904//EN"
 "http://www.w3.org/TR/2001/REC-SVG-20010904/DTD/svg10.dtd">
<svg version="1.0" xmlns="http://www.w3.org/2000/svg"
 width="700.000000pt" height="700.000000pt" viewBox="0 0 700.000000 700.000000"
 preserveAspectRatio="xMidYMid meet">
<metadata>
Created by potrace 1.11, written by Peter Selinger 2001-2013
</metadata>
<g transform="translate(0.000000,700.000000) scale(0.100000,-0.100000)"
fill="#000000" stroke="none">
<path d="M0 3500 l0 -3500 3500 0 3500 0 0 3500 0 3500 -3500 0 -3500 0 0
-3500z m3128 2433 l-3 -428 -1242 -3 -1243 -2 0 430 0 430 1245 0 1245 0 -2
-427z m3232 -1633 l0 -2060 -1245 0 -1245 0 0 2060 0 2060 1245 0 1245 0 0
-2060z m-3232 -1601 l-3 -2061 -1243 -2 -1242 -1 0 2063 0 2062 1245 0 1245 0
-2 -2061z m3232 -1636 l0 -428 -1242 2 -1243 3 -3 425 -2 425 1245 0 1245 0 0
-427z"/>
</g>
</svg>
